<?xml version="1.0" encoding="UTF-8" standalone="no"?>
<!-- Created with Inkscape (http://www.inkscape.org/) -->
<svg xmlns:dc="http://purl.org/dc/elements/1.1/" xmlns:cc="http://creativecommons.org/ns#" xmlns:rdf="http://www.w3.org/1999/02/22-rdf-syntax-ns#" xmlns:svg="http://www.w3.org/2000/svg" xmlns="http://www.w3.org/2000/svg" xmlns:sodipodi="http://sodipodi.sourceforge.net/DTD/sodipodi-0.dtd" xmlns:inkscape="http://www.inkscape.org/namespaces/inkscape" version="1.0" width="750" height="470.00003" id="svg24159" sodipodi:version="0.32" inkscape:version="0.46" sodipodi:docname="Pirate Flag.svg" inkscape:output_extension="org.inkscape.output.svg.inkscape">
  <metadata id="metadata43">
    <rdf:RDF>
      <cc:Work rdf:about="">
        <dc:format>image/svg+xml</dc:format>
        <dc:type rdf:resource="http://purl.org/dc/dcmitype/StillImage"/>
      </cc:Work>
    </rdf:RDF>
  </metadata>
  <sodipodi:namedview inkscape:window-height="678" inkscape:window-width="1024" inkscape:pageshadow="2" inkscape:pageopacity="0.0" guidetolerance="10.0" gridtolerance="10.0" objecttolerance="10.0" borderopacity="1.0" bordercolor="#666666" pagecolor="#ffffff" id="base" showgrid="false" inkscape:zoom="0.86775695" inkscape:cx="427.52916" inkscape:cy="226.49392" inkscape:window-x="-4" inkscape:window-y="-4" inkscape:current-layer="svg24159"/>
  <defs id="defs24161">
    <inkscape:perspective sodipodi:type="inkscape:persp3d" inkscape:vp_x="0 : 200 : 1" inkscape:vp_y="0 : 1000 : 0" inkscape:vp_z="400 : 200 : 1" inkscape:persp3d-origin="200 : 133.33333 : 1" id="perspective45"/>
  </defs>
  <g id="g2835">
    <path id="rect2476" d="M 5.075e-05,1.1888184e-05 L 749.99995,1.1888184e-05 L 749.99995,470.00002 L 5.075e-05,470.00002 L 5.075e-05,1.1888184e-05 z" style="fill:#000000;fill-opacity:1"/>
    <g transform="translate(-587.72216,96.094031)" id="g2803">
      <g transform="matrix(0.651999,0,0,0.651999,768.30014,-36.951871)" style="font-size:12px;fill:#000000;fill-opacity:1;stroke:#000000;stroke-opacity:0.99122799" id="g670">
        <path d="M 294.895,259.711 C 285.199,267.084 283.042,269.56 277.684,277.719 C 275.745,280.868 272.124,288.227 271.134,293.164 C 270.145,298.1 269.404,305.262 269.407,309.055 C 269.419,321.908 273.51,329.971 277.978,329.69 C 281.97,329.232 287.05,325.069 294.748,315.614" style="fill:#000000;fill-opacity:1;fill-rule:evenodd;stroke:#000000;stroke-width:1pt;stroke-linecap:butt;stroke-linejoin:miter;stroke-opacity:0.99122799" id="path584"/>
        <path d="M 294.895,259.711 C 285.199,267.084 283.042,269.56 277.684,277.719 C 275.745,280.868 272.124,288.227 271.134,293.164 C 270.145,298.1 269.404,305.262 269.407,309.055 C 269.419,321.908 273.51,329.971 277.978,329.69 C 281.97,329.232 287.05,325.069 294.748,315.614" transform="matrix(-1,0,0,1,596.772,0.208099)" style="fill:#000000;fill-opacity:1;fill-rule:evenodd;stroke:#000000;stroke-width:1pt;stroke-linecap:butt;stroke-linejoin:bevel;stroke-opacity:0.99122799" id="path585"/>
        <path d="M 211.888,203.561 C 225.348,201.202 238.391,199.676 251.851,198.15 C 269.474,193.709 278.355,213.83 273.498,228.955 C 267.393,242.415 258.79,254.21 248.938,265.588 C 241.306,274.191 232.214,275.583 223.544,272.664 C 216.546,270.724 210.083,266.421 203.145,256.43 C 200.093,247.826 197.457,243.385 193.571,232.701 C 190.519,222.849 195.266,208.101 211.888,203.561 z" transform="translate(0.588722,-3.051758e-5)" style="fill:#000000;fill-opacity:1;fill-rule:evenodd;stroke:#000000;stroke-width:1pt;stroke-linecap:butt;stroke-linejoin:miter;stroke-opacity:0.99122799" id="path586"/>
        <path d="M 211.888,203.561 C 225.348,201.202 238.391,199.676 251.851,198.15 C 269.474,193.709 278.355,213.83 273.498,228.955 C 267.393,242.415 258.79,254.21 248.938,265.588 C 241.306,274.191 232.214,275.583 223.544,272.664 C 216.546,270.724 210.083,266.421 203.145,256.43 C 200.093,247.826 197.457,243.385 193.571,232.701 C 190.519,222.849 195.266,208.101 211.888,203.561 z" transform="matrix(-1,0,0,1,596.4468,-3.051758e-5)" style="fill:#000000;fill-opacity:1;fill-rule:evenodd;stroke:#000000;stroke-width:1pt;stroke-linecap:butt;stroke-linejoin:miter;stroke-opacity:0.99122799" id="path587"/>
      </g>
      <path style="fill:#ffffff;fill-opacity:1" d="M 941.59662,194.67429 C 940.40614,194.45489 937.40703,193.87891 934.93192,193.39432 L 930.43173,192.51327 L 929.85763,188.45269 C 928.14381,176.33115 919.61087,167.79407 904.10076,162.68337 C 891.35643,158.48399 888.06574,156.0354 885.32608,148.71299 C 882.29583,140.61386 882.20123,133.88982 884.92619,120.28372 C 886.84422,110.70673 887.36024,105.68848 887.41499,96.080449 C 887.48066,84.55405 887.34227,83.534371 884.59467,75.301228 C 881.08661,64.789306 880.30314,52.922812 882.92543,50.017981 C 884.36724,48.420804 884.29381,48.223739 881.09109,45.096362 L 877.7548,41.838544 L 875.91238,44.180752 C 871.35709,49.971895 871.26851,63.530561 875.69425,77.578068 C 877.10003,82.040085 878.51546,87.748821 878.83966,90.264137 C 879.53283,95.64205 878.55506,107.10522 877.46087,106.42897 C 876.23758,105.67293 870.69093,95.339704 868.47974,89.69741 C 862.35175,74.060674 860.69224,54.270579 864.38032,40.810752 C 870.68032,17.818553 886.58062,0.397773 909.32789,-8.435023 C 929.46612,-16.254729 961.29958,-19.75117 983.07177,-16.534729 C 1002.4147,-13.677162 1022.4834,-7.324157 1031.2751,-1.275309 C 1046.4295,9.151245 1058.463,27.582319 1062.0519,45.863998 C 1063.7182,54.352449 1063.4828,72.111946 1061.6099,79.197332 C 1059.9468,85.488838 1053.4796,99.067713 1050.3074,102.92856 L 1048.2377,105.44765 L 1047.615,101.29523 C 1046.6647,94.95799 1047.7361,85.535678 1050.2264,78.331531 C 1053.431,69.060648 1054.7812,57.406492 1053.3773,51.133323 C 1052.774,48.437747 1051.3659,45.175384 1050.248,43.883635 L 1048.2155,41.534994 L 1045.1297,44.511756 C 1042.2249,47.313825 1042.1197,47.604172 1043.3354,49.459643 C 1044.225,50.817427 1044.6269,53.72702 1044.6269,58.810198 C 1044.6269,64.82476 1044.1065,67.752821 1041.8131,74.641522 C 1039.1707,82.578345 1039,83.832146 1039.0123,95.214648 C 1039.0228,104.86599 1039.5319,110.03712 1041.5113,120.59264 C 1043.7814,132.69812 1043.9093,134.38172 1042.9851,139.97847 C 1041.7022,147.7462 1039.1138,153.79351 1036.1318,155.98953 C 1034.8517,156.93216 1031.0771,158.75122 1027.7438,160.03191 C 1006.7481,168.09861 999.13454,174.64759 996.66225,186.76754 L 995.578,192.08298 L 990.88164,193.28712 C 986.2664,194.47045 946.55555,195.58815 941.59662,194.67428 L 941.59662,194.67429 z M 952.67859,177.55519 C 953.96445,176.89012 956.26778,174.78876 957.79708,172.88551 L 960.5776,169.42504 L 960.8274,150.71732 C 960.99661,138.04132 960.78331,132.00983 960.16583,132.01038 C 957.98953,132.01229 950.11564,141.14181 947.19699,147.04728 C 944.5757,152.35107 944.02719,154.49573 943.59813,161.11819 C 943.07147,169.24717 944.00876,174.28016 946.60217,177.24928 C 948.2016,179.08043 949.59411,179.15053 952.67858,177.5552 L 952.67859,177.55519 z M 980.03788,175.88541 C 981.6321,173.74097 981.85636,172.24047 981.85636,163.71814 C 981.85636,154.24735 981.77358,153.82953 978.64249,147.49531 C 975.76662,141.6774 967.64867,132.01118 965.63851,132.01118 C 965.27264,132.01118 964.97324,140.4138 964.97324,150.68367 L 964.97324,169.35616 L 967.34754,172.46898 C 970.16632,176.16464 974.28554,178.88514 976.57469,178.56299 C 977.4793,178.43569 979.03774,177.23077 980.03789,175.88541 L 980.03788,175.88541 z M 925.40122,141.2323 C 930.62122,139.05124 942.54634,124.06063 946.91139,114.19272 C 950.49187,106.09847 947.33334,94.919202 940.68832,92.166743 C 938.37327,91.207817 936.15692,91.197869 927.83891,92.109063 C 910.81432,93.973998 904.27975,95.390518 900.56065,98.022215 C 893.12991,103.28035 892.18148,110.15439 897.15612,122.69785 C 900.57225,131.31151 902.82966,134.6116 907.73924,138.16909 C 913.49707,142.34121 920.03389,143.47491 925.40124,141.23229 L 925.40122,141.2323 z M 1016.4069,139.46402 C 1018.5046,138.2347 1021.3996,135.74055 1022.8404,133.92146 C 1025.477,130.59256 1032.5099,114.21928 1032.5009,111.43101 C 1032.4807,105.16494 1027.7149,98.315981 1021.8593,96.137791 C 1017.7365,94.604206 1004.2501,92.484925 993.21636,91.636804 L 985.80051,91.066769 L 982.39645,94.470812 C 978.49819,98.369089 976.64945,103.77245 977.46625,108.88044 C 978.86793,117.64618 993.0264,137.89218 1000.0382,141.15734 C 1003.958,142.98267 1011.7843,142.17305 1016.4069,139.46401 L 1016.4069,139.46402 z" id="path2418"/>
      <path style="fill:#ffffff;fill-opacity:1" d="M 945.15764,256.21495 C 932.43858,253.45559 926.44116,250.09645 919.18025,241.66506 C 910.98956,232.154 908.26583,223.02812 908.93554,207.33998 C 909.47073,194.80271 908.70139,188.90469 905.22875,178.92341 C 902.14437,170.0581 903.78134,169.76469 907.17229,178.57505 C 910.86625,188.17274 913.83406,199.16428 915.16575,208.17964 L 916.38397,216.42676 L 920.83664,220.45564 C 930.85671,229.52198 941.71152,232.68165 963.24164,232.79907 C 979.45694,232.88751 985.16242,231.80647 995.90952,226.60935 C 1004.1873,222.60643 1008.7864,217.68225 1009.5796,211.97315 C 1011.8953,195.3057 1018.7292,173.07231 1021.8468,172.06238 C 1022.4691,171.86084 1021.8758,174.67076 1020.347,179.16553 C 1016.8905,189.32799 1016.1657,194.79294 1016.7016,206.6528 C 1017.5085,224.50771 1014.3285,233.57613 1003.5229,244.23438 C 998.26112,249.42442 996.19515,250.81253 990.4316,253.03025 C 986.66761,254.47856 981.27614,256.0885 978.45059,256.60792 C 971.39993,257.90401 951.88135,257.67364 945.15764,256.21496 L 945.15764,256.21495 z" id="path2420"/>
      <path style="fill:#ffffff;fill-opacity:1" d="M 863.91094,183.37335 C 825.05438,164.44868 826.58497,164.90746 809.03573,166.92544 C 801.68385,167.77083 795.4508,166.93049 791.91843,164.61767 C 789.78442,163.22043 792.54874,158.80902 800.31119,151.22419 C 807.4794,144.21999 807.56769,144.02462 808.51602,133.06778 C 808.85803,129.11625 809.69079,124.70878 810.36658,123.27342 C 813.37571,116.88212 820.56726,121.09184 827.0433,133.03553 C 829.50294,137.57186 832.96248,142.80502 834.7311,144.66474 C 836.86517,146.90871 847.60016,152.88922 866.64599,162.44455 L 895.3452,176.84301 L 897.91978,185.40653 C 900.43525,193.7733 901.25745,200.62342 899.73226,200.50682 C 899.31306,200.47477 883.19348,192.76471 863.91094,183.37336 L 863.91094,183.37335 z" id="path2422"/>
      <path style="fill:#ffffff;fill-opacity:1" d="M 1081.9148,292.76698 C 1079.2075,290.74698 1076.4915,287.21468 1074.1089,282.61438 C 1067.8478,270.52622 1065.1821,268.37434 1040.6785,255.62708 C 1028.5291,249.30677 1018.3802,243.79309 1018.1251,243.37448 C 1017.8701,242.95586 1018.779,239.49004 1020.1448,235.67261 C 1021.5106,231.85518 1022.628,227.82506 1022.628,226.71677 C 1022.628,225.60849 1022.7904,224.70169 1022.9889,224.70169 C 1023.1875,224.70169 1034.0483,229.73494 1047.1239,235.8867 C 1076.3561,249.63959 1077.2145,249.93768 1084.5088,248.867 C 1087.6422,248.40709 1093.7027,248.00111 1097.9767,247.96483 C 1104.2534,247.91158 1106.1586,248.27649 1107.8848,249.86289 C 1109.0601,250.94309 1110.0219,252.28164 1110.0219,252.83744 C 1110.0219,253.39324 1106.1481,257.61281 1101.4137,262.21427 L 1092.8054,270.58056 L 1091.8097,280.1285 C 1090.8324,289.50105 1089.2079,294.83167 1087.12,295.51836 C 1086.5408,295.70888 1084.1985,294.47077 1081.9148,292.76698 L 1081.9148,292.76698 z" id="path2426"/>
      <path style="fill:#ffffff;fill-opacity:1" d="M 836.96017,292.59522 C 836.43577,291.61335 835.42978,286.22297 834.72464,280.61661 L 833.44258,270.42325 L 824.84382,261.4942 C 819.46809,255.91202 816.3725,251.9037 816.58519,250.80047 C 817.22566,247.47833 821.40753,246.2777 829.67225,247.04319 C 833.88467,247.43335 840.54797,247.7862 844.47959,247.82729 C 852.99109,247.91625 858.79557,245.73544 885.09552,232.56734 C 894.51616,227.85054 902.44318,223.99132 902.71114,223.99132 C 902.97913,223.99132 903.19835,224.88319 903.19835,225.97323 C 903.19835,227.06328 904.40675,231.21182 905.88368,235.19223 C 907.36064,239.17264 908.39458,242.57192 908.18137,242.7462 C 907.96819,242.92046 897.2208,248.62238 884.29832,255.41712 L 860.80289,267.77118 L 853.34013,279.01415 C 843.80808,293.3746 839.35045,297.07057 836.96019,292.59522 L 836.96017,292.59522 z" id="path2424"/>
      <path style="fill:#ffffff;fill-opacity:1" d="M 1025.1994,196.37891 C 1025.5285,193.60227 1026.8752,188.19358 1028.1919,184.3596 L 1030.5858,177.38877 L 1059.7201,162.96252 C 1092.018,146.9698 1091.8428,147.10278 1098.7824,133.29645 C 1103.4265,124.05692 1110.9832,117.92102 1113.6964,121.18672 C 1115.1213,122.90184 1117.7855,135.32494 1117.8089,140.36306 C 1117.8247,143.72988 1118.8509,145.28831 1126.4675,153.51013 C 1136.0836,163.89027 1136.4333,165.62904 1129.303,167.60718 C 1124.3079,168.99298 1119.4643,168.95166 1110.6883,167.44832 C 1105.2335,166.51388 1102.4615,166.49968 1099.1325,167.38909 C 1096.7241,168.03264 1081.4483,174.84176 1065.1868,182.52047 C 1048.9252,190.1992 1033.141,197.59453 1030.1107,198.95456 L 1024.6008,201.42734 L 1025.1994,196.37891 z" id="path2428"/>
      <path style="fill:#ffffff;fill-opacity:1" d="M 922.21304,215.69398 C 920.59957,213.92556 920.68651,214.17827 920.08516,209.50912 C 919.43359,204.44995 918.3774,198.89809 917.17204,194.19615 C 916.10435,190.0313 913.28421,181.26997 911.75494,177.36686 C 911.31117,176.23427 910.99143,175.26096 911.04439,175.20395 C 911.24608,174.98682 915.67543,178.38267 916.68522,179.5286 C 919.61871,182.85761 921.0153,186.04134 921.24937,189.93327 L 921.40242,192.478 L 922.68087,193.17382 L 923.95933,193.86963 L 923.86277,205.04386 C 923.80967,211.18967 923.74119,216.45574 923.71059,216.74622 C 923.66698,217.16024 923.34337,216.93285 922.21304,215.69398 L 922.21304,215.69398 z" id="path2479"/>
      <path style="fill:#ffffff;fill-opacity:1" d="M 931.75469,207.61194 C 931.22615,207.35787 930.02148,206.73288 929.07766,206.22308 L 927.36162,205.29617 L 927.36162,200.3602 C 927.36162,195.79158 927.39738,195.43413 927.84211,195.55739 C 928.10638,195.63064 929.34193,195.97332 930.58778,196.31891 L 932.85295,196.94726 L 932.85295,202.5328 C 932.85295,205.60485 932.82207,208.10834 932.78431,208.09612 C 932.74656,208.0839 932.28323,207.86602 931.75469,207.61194 L 931.75469,207.61194 z" id="path2481"/>
      <path style="fill:#ffffff;fill-opacity:1" d="M 930.38185,221.93436 C 929.40028,221.38319 928.29927,220.703 927.93517,220.42281 L 927.27317,219.91339 L 927.338,214.77318 C 927.37368,211.94607 927.43542,209.60042 927.47522,209.56062 C 927.51501,209.52083 928.67706,210.01403 930.05754,210.65663 L 932.56751,211.825 L 932.57296,217.38498 C 932.57594,220.44296 932.48572,222.94305 932.37246,222.94072 C 932.2592,222.93839 931.36343,222.48553 930.38185,221.93436 L 930.38185,221.93436 z" id="path2483"/>
      <path style="fill:#ffffff;fill-opacity:1" d="M 939.71713,225.84598 C 938.58454,225.49891 937.3181,225.07793 936.90282,224.91045 L 936.14776,224.60595 L 936.14776,218.97053 C 936.14776,215.87105 936.2271,213.33512 936.32408,213.33512 C 936.42105,213.33512 937.31683,213.57367 938.31469,213.86523 C 939.31254,214.1568 940.65409,214.53222 941.29589,214.69951 L 942.46279,215.00368 L 942.46279,218.65832 C 942.46279,222.64073 942.20467,226.52526 941.94201,226.49566 C 941.85091,226.4854 940.84971,226.19304 939.71713,225.84598 L 939.71713,225.84598 z" id="path2485"/>
      <path style="fill:#ffffff;fill-opacity:1" d="M 941.77638,211.21566 C 941.47435,211.14208 940.06808,210.71295 938.65133,210.26205 L 936.07541,209.44222 L 936.20266,203.70125 C 936.27264,200.54372 936.38588,197.90429 936.45431,197.83586 C 936.52274,197.76743 937.90264,197.91206 939.52076,198.15726 L 942.46279,198.60307 L 942.46279,205.00811 C 942.46279,208.53088 942.43191,211.39881 942.39415,211.3813 C 942.3564,211.36378 942.0784,211.28924 941.77638,211.21566 z" id="path2487"/>
      <path style="fill:#ffffff;fill-opacity:1" d="M 948.64055,212.47476 C 947.58347,212.3418 946.56414,212.17597 946.37537,212.10626 C 946.11412,212.00978 946.03216,210.43669 946.03216,205.51858 L 946.03216,199.05764 L 948.20624,199.05764 C 949.40199,199.05764 950.57576,199.13263 950.81463,199.2243 C 951.19424,199.36997 951.24893,200.2345 951.24893,206.08847 C 951.24893,211.28196 951.17186,212.77818 950.90573,212.75125 C 950.71696,212.73215 949.69763,212.60773 948.64055,212.47476 L 948.64055,212.47476 z" id="path2489"/>
      <path style="fill:#ffffff;fill-opacity:1" d="M 948.43462,227.67646 L 945.7576,227.25544 L 945.7576,223.08123 C 945.7576,220.7854 945.83396,218.17639 945.9273,217.28342 L 946.097,215.65983 L 948.05518,215.89489 C 949.1322,216.02418 950.29138,216.18302 950.63116,216.24789 L 951.24893,216.36581 L 951.24893,222.26377 C 951.24893,225.50764 951.21805,228.14727 951.18029,228.12959 C 951.14254,228.11192 949.90699,227.90801 948.43462,227.67645 L 948.43462,227.67646 z" id="path2491"/>
      <path style="fill:#ffffff;fill-opacity:1" d="M 956.1225,228.50904 L 954.8183,228.40621 L 954.8183,222.51806 L 954.8183,216.62992 L 958.11311,216.62992 L 961.40791,216.62992 L 961.40791,222.67039 L 961.40791,228.71086 L 959.4173,228.66137 C 958.32246,228.63415 956.8398,228.5656 956.1225,228.50904 L 956.1225,228.50904 z" id="path2493"/>
      <path style="fill:#ffffff;fill-opacity:1" d="M 954.8183,206.19638 L 954.8183,199.3322 L 958.11311,199.3322 L 961.40791,199.3322 L 961.40791,206.19638 L 961.40791,213.06055 L 958.11311,213.06055 L 954.8183,213.06055 L 954.8183,206.19638 z" id="path2495"/>
      <path style="fill:#ffffff;fill-opacity:1" d="M 964.70271,206.23666 L 964.70271,199.3322 L 967.72295,199.3322 L 970.74318,199.3322 L 970.74318,206.05909 L 970.74318,212.78598 L 969.82363,212.78598 C 969.31787,212.78598 967.95876,212.86589 966.80339,212.96355 L 964.70271,213.14112 L 964.70271,206.23666 z" id="path2497"/>
      <path style="fill:#ffffff;fill-opacity:1" d="M 964.90864,228.83219 C 964.79538,228.71512 964.70271,225.93716 964.70271,222.65895 L 964.70271,216.69856 L 965.56073,216.52695 C 966.03264,216.43257 967.37276,216.35535 968.53877,216.35535 L 970.65879,216.35535 L 970.83827,219.69326 C 970.93699,221.52911 971.01775,224.3091 971.01775,225.87101 L 971.01775,228.71086 L 969.85084,228.7128 C 969.20904,228.71389 967.88082,228.78907 966.89925,228.8799 C 965.91767,228.97072 965.0219,228.94925 964.90864,228.83219 L 964.90864,228.83219 z" id="path2499"/>
      <path style="fill:#ffffff;fill-opacity:1" d="M 979.6041,224.31779 C 979.6041,223.63824 979.65765,223.36024 979.72309,223.70002 C 979.78853,224.03979 979.78854,224.59579 979.72309,224.93557 C 979.65764,225.27534 979.6041,224.99734 979.6041,224.31779 L 979.6041,224.31779 z" id="path2501"/>
      <path style="fill:#ffffff;fill-opacity:1" d="M 974.31255,205.84642 L 974.31255,199.13316 L 976.67545,198.94143 C 977.97504,198.83598 979.07714,198.7885 979.12456,198.83592 C 979.17197,198.88334 979.3,201.83974 979.40906,205.4057 L 979.60735,211.88926 L 977.98958,212.07108 C 977.0998,212.17108 975.90847,212.32193 975.34218,212.40629 L 974.31255,212.55969 L 974.31255,205.84642 z" id="path2503"/>
      <path style="fill:#ffffff;fill-opacity:1" d="M 982.96468,210.54905 C 982.87741,210.19374 982.84098,207.31528 982.88371,204.15248 L 982.96141,198.40193 L 986.05029,197.96882 L 989.13916,197.53571 L 989.14009,199.18902 C 989.14058,200.09833 989.22123,202.77698 989.31931,205.14155 L 989.49762,209.44079 L 987.32121,210.12831 C 986.12419,210.50645 984.68998,210.90117 984.13407,211.00546 C 983.22679,211.17567 983.10709,211.12895 982.96467,210.54905 L 982.96468,210.54905 z" id="path2505"/>
      <path style="fill:#ffffff;fill-opacity:1" d="M 983.09869,220.66518 L 983.09869,214.81603 L 985.70418,214.18791 C 987.13719,213.84244 988.56063,213.49416 988.86737,213.41395 C 989.41647,213.27036 989.42393,213.35638 989.35076,218.98405 L 989.27645,224.7 L 986.66806,225.58842 C 985.23345,226.07706 983.84345,226.48528 983.57918,226.49559 C 983.13602,226.51287 983.09869,226.05989 983.09869,220.66518 L 983.09869,220.66518 z" id="path2507"/>
      <path style="fill:#ffffff;fill-opacity:1" d="M 992.98198,220.95435 C 992.98137,219.85951 992.90182,217.4138 992.80519,215.51944 L 992.62952,212.07514 L 995.34604,210.72489 C 996.84014,209.98225 998.15525,209.32878 998.26851,209.27274 C 998.38177,209.2167 998.47422,211.62136 998.47394,214.61643 L 998.47345,220.062 L 997.30704,220.79625 C 996.05518,221.58427 993.42217,222.94496 993.14915,222.94496 C 993.05781,222.94496 992.9826,222.04918 992.98198,220.95435 L 992.98198,220.95435 z" id="path2509"/>
      <path style="fill:#ffffff;fill-opacity:1" d="M 992.70853,202.42275 L 992.70853,196.71925 L 994.97371,196.1278 C 996.21956,195.80251 997.45511,195.45054 997.71938,195.34565 C 998.16631,195.16827 998.19987,195.50193 998.19987,200.12309 L 998.19987,205.09122 L 997.16009,205.74761 C 996.58821,206.10862 995.35265,206.7915 994.41442,207.26512 L 992.70853,208.12625 L 992.70853,202.42275 z" id="path2511"/>
      <path style="fill:#ffffff;fill-opacity:1" d="M 1001.9487,213.56657 C 1001.85,211.73073 1001.7697,206.51052 1001.7702,201.96612 L 1001.7712,193.70358 L 1003.261,192.89997 C 1004.87,192.03204 1005.0545,191.69635 1005.0603,189.62471 C 1005.0696,186.30494 1006.9011,182.18318 1009.5702,179.47481 C 1011.6529,177.36153 1014.0232,175.63947 1013.7678,176.42519 C 1013.6731,176.71659 1012.6072,179.85855 1011.3993,183.40733 C 1008.0984,193.10493 1006.1486,201.58355 1005.0315,211.09722 C 1004.7205,213.74621 1004.6234,214.03932 1003.5993,215.42165 C 1002.9951,216.23721 1002.4169,216.90448 1002.3144,216.90448 C 1002.212,216.90448 1002.0474,215.40243 1001.9487,213.56658 L 1001.9487,213.56657 z" id="path2513"/>
      <path style="fill:#ffffff;fill-opacity:1" d="M 974.32822,221.97855 C 974.32822,216.36933 974.37735,215.95996 975.05061,215.95996 C 975.44794,215.95996 976.5837,215.84884 977.57454,215.71303 L 979.37607,215.4661 L 979.37607,221.48666 L 979.37607,227.50723 L 977.91996,227.74791 C 977.11909,227.88028 975.98333,227.99051 975.39603,227.99286 L 974.32822,227.99714 L 974.32822,221.97855 z" id="path2580"/>
    </g>
  </g>
</svg>